<svg width="38" height="27" viewBox="0 0 38 27" fill="none" xmlns="http://www.w3.org/2000/svg">
<g clip-path="url(#clip0_67_230)">
<path d="M18.6085 26.9972C14.1024 26.9972 9.59639 27.0004 5.09034 26.9961C2.84649 26.994 1.0555 25.7877 0.398838 23.7876C0.227395 23.2665 0.145448 22.6954 0.144369 22.1466C0.126039 16.5768 0.123882 11.0069 0.134665 5.43711C0.140056 2.63994 2.1963 0.61426 5.03104 0.611063C14.1111 0.603604 23.19 0.603604 32.27 0.611063C35.108 0.613194 37.1556 2.62929 37.1621 5.43818C37.1761 11.008 37.1739 16.5778 37.1621 22.1477C37.1567 24.9757 35.1101 26.9886 32.2474 26.994C27.7004 27.0036 23.1544 26.9961 18.6074 26.9961L18.6085 26.9972ZM2.75915 7.67591C2.74836 7.81124 2.73866 7.87731 2.73866 7.94231C2.73866 12.7407 2.73435 17.539 2.7419 22.3373C2.74405 23.534 3.67567 24.4206 4.9189 24.4216C14.0647 24.4248 23.2105 24.4248 32.3563 24.4216C33.662 24.4216 34.5581 23.5329 34.5592 22.2404C34.5635 17.4953 34.5613 12.7502 34.5592 8.00518C34.5592 7.89649 34.5408 7.7878 34.5279 7.64501C34.3672 7.73559 34.2508 7.79846 34.1365 7.86559C29.9766 10.325 25.8188 12.7897 21.6546 15.2427C19.6813 16.4052 17.6801 16.4255 15.6993 15.2725C12.4818 13.4003 9.27722 11.5046 6.06725 9.61955C4.98467 8.98339 3.89995 8.3483 2.75699 7.67698L2.75915 7.67591ZM34.4794 4.75087C34.1699 3.73004 33.4065 3.18446 32.3207 3.18339C26.9822 3.18126 21.6438 3.18339 16.3053 3.18339C12.5131 3.18339 8.72084 3.18339 4.9286 3.18339C4.01963 3.18339 3.37375 3.59578 2.94137 4.37366C2.78395 4.65817 2.81414 4.81907 3.12683 5.00022C7.56926 7.5864 12.002 10.1875 16.4379 12.7843C16.6223 12.893 16.8099 12.9975 16.9932 13.1083C18.0413 13.7402 19.1023 13.754 20.1558 13.1392C23.2903 11.3117 26.4194 9.47463 29.5496 7.64075C31.1885 6.68065 32.8275 5.71949 34.4794 4.75087V4.75087Z" fill="#D3AD7F"/>
</g>
<defs>
<clipPath id="clip0_67_230">
<rect width="37.0436" height="26.3936" fill="white" transform="translate(0.128235 0.606445)"/>
</clipPath>
</defs>
</svg>
