<svg width="44" height="44" viewBox="0 0 44 44" fill="none" xmlns="http://www.w3.org/2000/svg">
<g clip-path="url(#clip0_67_226)">
<path d="M32.7228 43.0503C30.6252 42.8465 28.8272 42.3695 27.0724 41.7174C22.5032 40.0201 18.501 37.3879 14.8272 34.2307C10.1549 30.2153 6.26172 25.5622 3.39698 20.0868C2.07729 17.5625 1.09201 14.9159 0.589783 12.0955C0.414782 11.1151 0.462728 10.2257 1.0129 9.35068C2.99065 6.20666 5.26925 3.32155 8.1208 0.917086C8.22388 0.830784 8.33296 0.751674 8.44323 0.673763C9.95711 -0.408604 11.4482 -0.188055 12.5402 1.3438C13.4415 2.60836 14.3345 3.8873 15.1256 5.22138C16.1061 6.8755 17.059 8.55598 17.8729 10.2952C18.7587 12.1878 18.5226 12.9981 16.9883 14.4125C16.329 15.0202 15.6458 15.6028 14.9482 16.1661C14.6677 16.3927 14.6198 16.5916 14.7445 16.9224C16.5304 21.6666 19.6397 25.2577 24.1154 27.6406C24.9412 28.0805 25.8366 28.3886 26.6924 28.7733C26.9286 28.8788 27.0664 28.8261 27.2246 28.6355C27.7688 27.9798 28.3178 27.3266 28.8907 26.6961C29.2419 26.3114 29.6171 25.9398 30.0246 25.6173C30.6336 25.1343 31.3336 25.0096 32.0947 25.223C33.6793 25.6665 35.1116 26.4456 36.4973 27.2954C38.3683 28.4425 40.1963 29.6615 42.0314 30.8662C42.7565 31.342 43.2312 32.0085 43.4541 32.8619C43.5836 33.3557 43.5536 33.822 43.2887 34.2415C42.9471 34.7833 42.6091 35.3395 42.1836 35.8129C39.7492 38.5242 36.9587 40.8076 33.8003 42.6296C33.412 42.8537 32.9577 42.9604 32.7216 43.0503H32.7228ZM40.563 33.3893C40.3808 33.2419 40.2466 33.1244 40.104 33.0213C37.5329 31.1598 34.8144 29.5477 31.9425 28.1896C31.6296 28.0422 31.4738 28.0997 31.2736 28.337C30.5808 29.1605 29.8377 29.9444 29.1796 30.793C28.3058 31.9198 27.2966 32.0672 25.9793 31.6021C21.7037 30.0906 18.163 27.5795 15.3929 24.0004C13.6705 21.7733 12.3472 19.3293 11.6448 16.5772C11.4878 15.9611 11.5813 15.4266 12.0523 14.9759C12.2789 14.7589 12.4778 14.512 12.7128 14.3046C13.5398 13.5699 14.3729 12.8435 15.2107 12.1219C15.3941 11.9649 15.4409 11.8366 15.3258 11.5945C13.945 8.68543 12.3148 5.92498 10.4234 3.31915C10.3311 3.19209 10.2172 3.07942 10.1033 2.94637C10.0003 3.03387 9.93074 3.08781 9.86601 3.14774C7.53347 5.2933 5.49579 7.68817 3.72301 10.318C3.40777 10.7854 3.35623 11.2146 3.45212 11.736C3.88842 14.1045 4.69271 16.3483 5.80983 18.4687C9.99666 26.4144 16.051 32.5694 23.8169 37.0415C26.2849 38.4631 28.9159 39.5023 31.7327 40.0285C32.2721 40.1292 32.7096 40.0693 33.189 39.7432C35.1728 38.3936 37.0402 36.9073 38.7591 35.2352C39.3668 34.6443 39.9457 34.021 40.5618 33.3881L40.563 33.3893Z" fill="#D3AD7F"/>
<path d="M42.107 19.6694C42.0962 19.8492 42.1178 20.1416 42.0542 20.4125C41.8864 21.1245 41.19 21.5704 40.4529 21.4769C39.7864 21.393 39.2446 20.7889 39.2339 20.0829C39.1859 16.9784 38.4032 14.0837 36.6808 11.4887C34.0234 7.48644 30.3112 5.10475 25.5419 4.42033C24.8491 4.32084 24.1443 4.29088 23.4443 4.25612C22.6016 4.21417 21.9975 3.61964 22.0035 2.80218C22.0083 1.9895 22.628 1.39258 23.4742 1.38419C31.6309 1.30149 39.1667 6.989 41.3794 14.888C41.8085 16.4199 42.0506 17.9781 42.1082 19.6706L42.107 19.6694Z" fill="#D3AD7F"/>
<path d="M23.8098 8.5625C28.88 8.61284 33.5631 12.4748 34.6359 17.5307C34.8085 18.3422 34.8684 19.1848 34.9092 20.0166C34.9499 20.8545 34.3051 21.479 33.496 21.4826C32.6845 21.4862 32.0768 20.8773 32.0516 20.0358C31.9354 16.0336 29.4925 12.8188 25.7132 11.7617C25.0168 11.5663 24.2761 11.4956 23.5509 11.444C22.6052 11.3769 21.9867 10.8231 22.0011 9.95651C22.0155 9.12466 22.6555 8.5613 23.5857 8.5637C23.66 8.5637 23.7355 8.5637 23.8098 8.5637V8.5625Z" fill="#D3AD7F"/>
</g>
<defs>
<clipPath id="clip0_67_226">
<rect width="43.0298" height="43.0501" fill="white" transform="translate(0.5)"/>
</clipPath>
</defs>
</svg>
