<svg width="42" height="42" viewBox="0 0 42 42" fill="none" xmlns="http://www.w3.org/2000/svg">
<g clip-path="url(#clip0_67_235)">
<path d="M0.00109863 19.9046C0.107752 19.1763 0.193937 18.4448 0.323215 17.7209C1.08811 13.458 3.02188 9.79617 6.07929 6.74199C9.06667 3.75784 12.6455 1.82084 16.8018 1.07318C22.9166 -0.0278305 28.4928 1.30696 33.3934 5.14326C37.5831 8.42368 40.1256 12.7448 41.023 17.9924C42.5851 27.1312 37.6477 36.3303 29.1768 40.1548C27.0168 41.1298 24.7674 41.7374 22.4049 41.9248C22.3014 41.9334 22.2002 41.9744 22.0978 42.0002H19.1945C18.7183 41.9378 18.2421 41.8817 17.7681 41.8117C13.7551 41.2149 10.1914 39.6194 7.13505 36.9455C3.48512 33.7523 1.19907 29.7684 0.325369 24.9895C0.19286 24.2666 0.10883 23.5351 0.00325326 22.8079C0.00325326 21.8405 0.00325326 20.8731 0.00325326 19.9046H0.00109863ZM20.6542 40.0665C30.949 40.0578 39.3714 31.6214 39.3553 21.3363C39.3391 11.0534 30.9361 2.65467 20.6553 2.64713C10.3659 2.63959 1.93595 11.0642 1.93595 21.3568C1.93595 31.6462 10.3691 40.0762 20.6553 40.0675L20.6542 40.0665Z" fill="#D3AD7F"/>
<path d="M33.1187 21.3511C33.1263 28.1931 27.535 33.7972 20.6693 33.8285C13.8262 33.8597 8.17574 28.2222 8.17035 21.3597C8.16497 14.5037 13.809 8.86503 20.6607 8.88335C27.5199 8.90166 33.1112 14.4983 33.1187 21.3511ZM24.1329 18.7763H17.1562C16.9666 20.5021 16.9698 22.2086 17.1551 23.9366H24.1318C24.3203 22.2108 24.3192 20.5043 24.1329 18.7763ZM23.8635 16.765C23.5834 15.2826 23.215 13.8713 22.4975 12.5807C22.2519 12.139 21.9556 11.7091 21.6098 11.3439C20.9753 10.6738 20.344 10.6868 19.6857 11.3278C19.495 11.5141 19.3194 11.7242 19.1719 11.9461C18.199 13.4005 17.7606 15.0488 17.4255 16.7671H23.8635V16.765ZM17.3447 25.9469C17.6679 27.021 17.8963 28.0487 18.2895 29.0086C18.6149 29.8037 19.0587 30.5782 19.5855 31.2569C20.2427 32.1026 20.9947 32.0542 21.7283 31.2645C21.7736 31.2149 21.8188 31.1643 21.8597 31.1115C23.0329 29.5936 23.4854 27.8009 23.8668 25.9469H17.3447ZM15.1244 18.7569C13.6302 18.7569 12.1553 18.7515 10.6794 18.7698C10.5825 18.7709 10.4273 18.94 10.4004 19.0542C10.0406 20.5926 10.0535 22.1343 10.3875 23.6791C10.4349 23.9 10.5264 23.9614 10.7354 23.9603C12.1575 23.9539 13.5806 23.956 15.0027 23.9528C15.0511 23.9528 15.1007 23.928 15.1233 23.9215V18.7569H15.1244ZM26.1647 18.7569V23.9161C26.1787 23.9237 26.2013 23.9452 26.2239 23.9452C27.6869 23.9506 29.1488 23.9592 30.6118 23.9442C30.7077 23.9442 30.8607 23.7729 30.8887 23.6576C31.2108 22.3508 31.227 21.0279 31.0277 19.7039C30.8844 18.7547 30.8671 18.7569 29.9062 18.7569H26.1647ZM24.1857 11.4721C24.1889 11.5314 24.1824 11.5615 24.1932 11.5809C25.0238 13.1323 25.4978 14.7999 25.7973 16.5215C25.8383 16.7596 25.9589 16.7887 26.155 16.7876C26.9737 16.7833 27.7914 16.7854 28.6102 16.7854C29.0885 16.7854 29.5668 16.7854 30.0613 16.7854C29.1585 14.5672 26.7378 12.3103 24.1867 11.47L24.1857 11.4721ZM24.1081 31.2947C26.8531 30.2453 28.8052 28.5012 30.1152 25.9275C28.7104 25.9275 27.3971 25.9232 26.0839 25.9372C25.9912 25.9372 25.8329 26.0589 25.8178 26.144C25.5 27.9044 25.012 29.6076 24.1081 31.2947ZM11.245 16.7423C11.2665 16.7542 11.2881 16.7768 11.3096 16.7768C12.611 16.7811 13.9135 16.7897 15.2149 16.7725C15.3075 16.7714 15.4497 16.5969 15.4821 16.4795C15.7751 15.4237 16.0186 14.3529 16.3396 13.3057C16.5249 12.6992 16.8265 12.1293 17.0776 11.54C15.3388 11.679 11.8817 14.7644 11.245 16.7434V16.7423ZM11.2191 25.9275C12.0368 28.095 15.4971 31.16 17.111 31.1632C16.2685 29.5774 15.7837 27.886 15.4702 26.1376C15.4551 26.0535 15.2935 25.9372 15.1987 25.9361C13.8844 25.9232 12.5701 25.9275 11.2181 25.9275H11.2191Z" fill="#D3AD7F"/>
</g>
<defs>
<clipPath id="clip0_67_235">
<rect width="41.3073" height="41.2998" fill="white" transform="translate(0.00109863 0.700195)"/>
</clipPath>
</defs>
</svg>
