<svg width="14" height="26" viewBox="0 0 14 26" fill="none" xmlns="http://www.w3.org/2000/svg">
<g clip-path="url(#clip0_77_18)">
<path d="M4.05092 25.9014C4.04357 25.7938 4.0302 25.6869 4.0302 25.5793C4.02886 21.9111 4.02953 18.2429 4.02953 14.5753C4.02953 14.4691 4.02953 14.3628 4.02953 14.2312H0.11673V9.65944H4.02953C4.02953 9.52845 4.02953 9.43021 4.02953 9.33198C4.03755 8.13174 4.00614 6.92949 4.06295 5.73126C4.13913 4.11067 4.67109 2.66718 5.94684 1.58122C6.8116 0.844768 7.83474 0.467188 8.95011 0.350238C10.2733 0.211235 11.5965 0.314151 12.917 0.426423C13.0654 0.43912 13.2144 0.449144 13.3828 0.461842V4.54172C13.3026 4.54172 13.2144 4.54038 13.1269 4.54172C12.2608 4.55508 11.3934 4.55107 10.5279 4.58783C9.41724 4.63461 8.8091 5.20733 8.76366 6.31668C8.71821 7.41467 8.75363 8.51533 8.75363 9.65609H13.2478C13.0494 11.1918 12.8556 12.6981 12.6577 14.2285H8.76299C8.75564 14.3187 8.74628 14.3829 8.74628 14.447C8.74561 18.2235 8.74628 22 8.74628 25.7764C8.74628 25.8179 8.75096 25.8593 8.75296 25.9007L4.05092 25.9014Z" fill="#D3AD7F"/>
</g>
<defs>
<clipPath id="clip0_77_18">
<rect width="13.2661" height="25.618" fill="white" transform="translate(0.11673 0.283203)"/>
</clipPath>
</defs>
</svg>
