<svg width="28" height="28" viewBox="0 0 28 28" fill="none" xmlns="http://www.w3.org/2000/svg">
<g clip-path="url(#clip0_77_14)">
<path d="M27.0258 7.27188V20.9163C26.9535 21.2837 26.8977 21.6544 26.8056 22.0173C26.009 25.1669 23.2038 27.4825 20.0199 27.5134C15.7351 27.5548 11.4503 27.5285 7.16487 27.52C6.26439 27.518 5.38759 27.3235 4.57585 26.9416C1.73312 25.6027 0.204294 23.3568 0.168801 20.2045C0.122792 16.13 0.153027 12.0542 0.163543 7.97911C0.164858 7.48418 0.19575 6.97611 0.308144 6.49695C0.996971 3.55761 2.80251 1.67188 5.72148 0.871311C6.06393 0.777321 6.41951 0.729339 6.76853 0.659668C11.3169 0.659668 15.8652 0.659668 20.413 0.659668C20.6857 0.710278 20.9618 0.747743 21.2313 0.813471C24.1384 1.52267 26.0057 3.31376 26.8089 6.19986C26.9062 6.55019 26.9542 6.91432 27.0252 7.27254L27.0258 7.27188ZM13.618 2.23451C11.6153 2.23451 9.61322 2.22662 7.6105 2.24042C7.15895 2.24371 6.69623 2.27131 6.25782 2.37188C3.51566 2.99892 1.73575 5.24287 1.73247 8.06061C1.72721 12.0832 1.72721 16.105 1.73707 20.1276C1.73838 20.5614 1.77124 21.0064 1.86786 21.4277C2.49622 24.1685 4.74411 25.9517 7.55726 25.955C11.5798 25.9596 15.6017 25.9603 19.6242 25.9504C20.058 25.9491 20.5023 25.9149 20.9243 25.8183C23.6448 25.1945 25.4411 22.9618 25.4497 20.1815C25.4615 16.1241 25.4654 12.0667 25.447 8.00935C25.4385 6.04869 24.6353 4.46136 23.0421 3.29798C22.0272 2.55657 20.8724 2.23713 19.6249 2.23516C17.6222 2.23188 15.6201 2.23451 13.6174 2.23451H13.618Z" fill="#D3AD7F"/>
<path d="M20.9374 14.0874C20.9413 18.1415 17.6392 21.4436 13.5844 21.4397C9.54021 21.4357 6.24856 18.1441 6.24527 14.0999C6.24133 10.0458 9.54349 6.74362 13.5982 6.74756C17.6425 6.75151 20.9341 10.0432 20.9374 14.0874ZM19.3507 13.8725C19.2166 10.5282 16.2747 8.01348 12.9705 8.36381C10.001 8.67864 7.51316 11.3774 7.86283 14.721C8.17307 17.6893 10.8758 20.1803 14.224 19.8195C17.21 19.4974 19.4651 16.8986 19.3501 13.8725H19.3507Z" fill="#D3AD7F"/>
<path d="M18.9452 6.29487C18.9525 5.10848 19.9463 4.11994 21.1215 4.13045C22.3019 4.14097 23.2905 5.1328 23.2918 6.30736C23.2931 7.499 22.2954 8.48426 21.0952 8.47703C19.9042 8.4698 18.9387 7.48914 18.9452 6.29487ZM21.1228 5.7283C20.804 5.72435 20.5299 5.98529 20.5233 6.30013C20.5168 6.60313 20.7948 6.89036 21.1037 6.89891C21.4133 6.90745 21.688 6.63731 21.6933 6.31919C21.6986 5.99318 21.4475 5.7329 21.1234 5.72895L21.1228 5.7283Z" fill="#D3AD7F"/>
</g>
<defs>
<clipPath id="clip0_77_14">
<rect width="26.882" height="26.8767" fill="white" transform="translate(0.143799 0.659668)"/>
</clipPath>
</defs>
</svg>
