<svg width="42" height="42" viewBox="0 0 42 42" fill="none" xmlns="http://www.w3.org/2000/svg">
<g clip-path="url(#clip0_63_155)">
<path d="M0.75 21.6736C0.888677 20.9697 0.956966 20.2427 1.18284 19.5683C1.50012 18.6185 1.93611 17.7077 2.31748 16.7789C2.36895 16.6518 2.4551 16.5037 2.42884 16.386C2.02856 14.6011 2.47611 12.9296 3.11592 11.2928C3.36701 10.6498 3.68744 10.031 4.00682 9.41644C4.26001 8.92791 4.70126 8.78609 5.11939 9.00776C5.54803 9.23574 5.66044 9.69379 5.38309 10.1897C4.69495 11.421 4.20853 12.7226 3.94063 14.1105C3.41324 16.8388 5.47659 19.5788 8.24173 19.874C10.8178 20.1492 13.3875 20.4833 15.9593 20.7911C16.8692 20.9004 17.7779 21.016 18.6877 21.1147C20.1627 21.2744 21.2795 20.1776 21.1104 18.7036C20.8215 16.1812 20.5052 13.6619 20.1995 11.1415C20.0692 10.0636 19.9915 8.97519 19.794 7.9099C19.2697 5.07962 16.5739 3.3556 13.7741 4.00171C12.504 4.29483 11.2989 4.75078 10.1664 5.39584C9.85333 5.57444 9.54761 5.59861 9.2461 5.38324C8.9866 5.19833 8.85318 4.92518 8.94458 4.63102C9.01182 4.41459 9.16415 4.16245 9.35116 4.05319C11.01 3.09401 12.775 2.41848 14.7039 2.29136C15.2323 2.25669 15.7702 2.37541 16.3039 2.41323C16.4258 2.42163 16.5718 2.42688 16.6706 2.37015C18.1803 1.50867 19.794 0.977075 21.5243 0.804779C21.5737 0.799526 21.621 0.766957 21.6682 0.748047H23.7915C24.342 0.852055 24.8935 0.947658 25.4419 1.06112C26.7405 1.32902 27.8247 1.96883 28.7229 2.94272C28.8353 3.06459 29.015 3.1623 29.1778 3.19276C34.2952 4.16035 38.0858 6.98118 40.6996 11.4399C41.1829 12.2646 41.144 13.104 40.582 13.8751C39.9968 14.6767 39.1805 14.9373 38.2202 14.7198C35.6862 14.1462 33.1543 14.2155 30.6266 14.7471C30.4921 14.7755 30.3293 14.9068 30.2736 15.0318C29.6086 16.5384 28.5065 17.5679 26.9684 18.1458C25.6353 18.6469 24.3094 19.1659 22.9752 19.6649C22.7503 19.749 22.6201 19.8593 22.5434 20.1009C22.1547 21.3364 21.3341 22.1601 20.0987 22.5488C19.8591 22.6244 19.7457 22.7515 19.6616 22.9785C19.1636 24.3127 18.6425 25.6385 18.1414 26.9728C17.5636 28.5119 16.5361 29.615 15.0296 30.28C14.9046 30.3357 14.7711 30.4975 14.7428 30.632C14.2112 33.1607 14.1418 35.6916 14.7144 38.2267C14.9308 39.1838 14.6745 40.0032 13.8729 40.5894C13.0713 41.1757 12.2161 41.1736 11.3693 40.6714C7.12181 38.1552 4.34091 34.5528 3.30713 29.6833C3.19682 29.1622 3.00456 28.7619 2.62004 28.3869C1.45389 27.2522 1.0263 25.7793 0.830895 24.2161C0.816187 24.0753 0.778366 23.9366 0.75 23.7969V21.6726V21.6736ZM18.4608 3.1728C18.4923 3.29152 18.4923 3.30728 18.4986 3.31253C18.549 3.3535 18.5984 3.39553 18.652 3.43335C20.0293 4.39779 20.9318 5.69736 21.3005 7.33417C21.4665 8.07064 21.5254 8.83336 21.6178 9.58558C21.8742 11.6889 22.1221 13.7932 22.3732 15.8975C22.4593 16.6172 22.5476 17.3368 22.6432 18.1279C24.177 17.5133 25.7025 17.0195 27.1166 16.303C28.5433 15.5802 29.181 14.2575 29.0896 12.6522C28.9782 10.6918 28.7944 8.73566 28.682 6.77526C28.5737 4.89997 27.3151 3.24004 25.5071 2.7158C23.948 2.26299 22.3606 2.18525 20.771 2.52669C19.9894 2.69478 19.2288 2.95428 18.4608 3.17175V3.1728ZM18.0952 22.636C17.0183 22.511 16.0056 22.3964 14.9939 22.2756C12.8507 22.0203 10.7106 21.743 8.56532 21.5129C7.06823 21.3532 5.69616 20.912 4.56153 19.8981C4.08982 19.4769 3.68849 18.9757 3.24094 18.4946C3.19682 18.5912 3.13903 18.7047 3.09281 18.8213C2.25234 20.9288 2.10316 23.0867 2.64736 25.2877C3.10857 27.1514 4.74538 28.5382 6.62278 28.6726C8.58107 28.8134 10.5404 28.951 12.4987 29.0866C14.4286 29.221 15.9436 28.2577 16.6433 26.4528C16.9311 25.71 17.2158 24.9651 17.4995 24.2203C17.6939 23.7097 17.884 23.198 18.0962 22.6339L18.0952 22.636ZM30.7485 13.0903C33.3697 12.6186 35.9678 12.5661 38.5606 13.1691C38.838 13.2332 39.1101 13.2175 39.3023 12.9496C39.4988 12.6754 39.4452 12.4169 39.2845 12.1469C38.0017 9.98375 36.3523 8.16624 34.2206 6.81203C32.9127 5.97997 31.5028 5.37903 30.0004 5.01028C30.4942 7.68507 30.4448 10.3872 30.7495 13.0914L30.7485 13.0903ZM5.01328 30.0037C5.04585 30.1361 5.07632 30.2737 5.11519 30.4093C6.23616 34.3038 8.64621 37.1813 12.0827 39.252C12.3705 39.4254 12.6468 39.5347 12.9515 39.3056C13.2593 39.0745 13.2068 38.7667 13.1406 38.4494C12.7929 36.8021 12.6269 35.139 12.7719 33.456C12.8507 32.5493 12.9547 31.6458 13.0461 30.7507C10.3849 30.4439 7.68282 30.5049 5.01433 30.0048L5.01328 30.0037Z" fill="#D3AD7F"/>
<path d="M6.91484 7.68373C6.46834 7.69003 6.11009 7.34439 6.10694 6.90734C6.10484 6.48185 6.4799 6.10679 6.90539 6.1089C7.32983 6.111 7.66916 6.44824 7.68072 6.87793C7.69228 7.33493 7.3666 7.67742 6.91484 7.68373Z" fill="#D3AD7F"/>
</g>
<defs>
<clipPath id="clip0_63_155">
<rect width="40.2879" height="40.29" fill="white" transform="translate(0.75 0.75)"/>
</clipPath>
</defs>
</svg>
