<svg width="33" height="42" viewBox="0 0 33 42" fill="none" xmlns="http://www.w3.org/2000/svg">
<g clip-path="url(#clip0_63_158)">
<path d="M2.98217 13.4988C2.5653 13.4988 2.20154 13.5108 1.84044 13.4961C1.1607 13.4683 0.721268 13.0448 0.711975 12.3624C0.694716 10.9883 0.696044 9.61292 0.711975 8.23885C0.719941 7.5724 1.13017 7.17412 1.79662 7.12101C1.89487 7.11305 1.99576 7.11437 2.09401 7.11305C2.79321 7.10685 3.25521 6.76345 3.48002 6.08283C3.95265 4.65699 4.42527 3.23115 4.90055 1.8053C5.19395 0.92776 5.43956 0.753844 6.39278 0.753844C12.736 0.753844 19.0793 0.753844 25.4226 0.753844C25.9696 0.753844 26.5152 0.745879 27.0622 0.756499C27.7698 0.769775 28.0791 0.99945 28.3048 1.67254C28.8611 3.33204 29.428 4.98889 29.9563 6.65635C30.0758 7.03339 30.2484 7.15819 30.6215 7.11968C30.9003 7.09181 31.1844 7.10375 31.4645 7.125C32.1296 7.17412 32.5093 7.52991 32.5199 8.20301C32.5425 9.61026 32.5438 11.0188 32.5173 12.4261C32.5053 13.0886 32.0659 13.4656 31.3941 13.5028C31.0211 13.5227 30.5219 13.4205 30.3108 13.6183C30.0918 13.8241 30.1449 14.3259 30.0878 14.7003C29.1359 20.8418 28.1827 26.9819 27.2348 33.1234C26.8869 35.3776 26.5537 37.6332 26.2099 39.8888C26.0798 40.7478 25.7279 41.0425 24.8411 41.0425C19.3594 41.0425 13.8765 41.0425 8.3948 41.0425C7.50132 41.0425 7.18668 40.7544 7.05126 39.8729C6.40605 35.675 5.75022 31.4785 5.10368 27.2806C4.52484 23.5235 3.95397 19.7651 3.37912 16.008C3.25433 15.1915 3.12157 14.3763 2.9835 13.5015L2.98217 13.4988ZM28.0897 13.5307H5.15811C6.46181 22.0021 7.7602 30.439 9.0586 38.8825C9.21392 38.8945 9.3281 38.9104 9.44227 38.9104C14.211 38.9117 18.9797 38.9077 23.7485 38.9184C24.1096 38.9184 24.2516 38.8082 24.2636 38.4444C24.2742 38.1337 24.3565 37.8244 24.4043 37.5138C24.8836 34.3952 25.3615 31.2754 25.8408 28.1555C26.32 25.037 26.802 21.9171 27.2812 18.7986C27.5494 17.0528 27.8176 15.3057 28.0897 13.528V13.5307ZM27.8534 7.09181C27.3994 5.72571 26.9772 4.42599 26.5218 3.13821C26.478 3.01607 26.2338 2.89128 26.0811 2.88995C19.7763 2.878 13.4715 2.88066 7.16809 2.87269C6.89063 2.87269 6.76185 2.955 6.67688 3.2192C6.29321 4.41271 5.88829 5.60091 5.49532 6.79177C5.46744 6.87806 5.4754 6.97498 5.46611 7.09181H27.8534ZM2.88658 11.3043H30.3706V9.27438H2.88658V11.3043Z" fill="#D3AD7F"/>
</g>
<defs>
<clipPath id="clip0_63_158">
<rect width="31.8372" height="40.29" fill="white" transform="translate(0.700012 0.75)"/>
</clipPath>
</defs>
</svg>
