<svg width="47" height="42" viewBox="0 0 47 42" fill="none" xmlns="http://www.w3.org/2000/svg">
<g clip-path="url(#clip0_63_144)">
<path d="M46.5395 25.4842C46.1139 27.2992 45.029 28.667 43.5138 29.6572C42.3953 30.3885 41.2025 31.0274 39.9857 31.5861C38.1372 32.4336 36.1748 32.9599 34.1872 33.383C34.0733 33.407 33.9403 33.4298 33.8599 33.5029C33.2366 34.0735 32.6228 34.6562 31.9527 35.2867C32.1637 35.2867 32.3219 35.2867 32.4789 35.2867C36.1424 35.2867 39.8059 35.2915 43.4682 35.2819C43.9633 35.2807 44.3541 35.4042 44.5579 35.8873C44.7665 36.3824 44.5387 36.748 44.1971 37.0849C43.5365 37.737 42.8892 38.4012 42.2287 39.0533C40.8872 40.3756 39.2797 41.0409 37.3916 41.0409C27.5387 41.0361 17.6847 41.0361 7.8319 41.0409C5.97618 41.0409 4.38779 40.3983 3.05834 39.1168C2.34746 38.4323 1.66175 37.7203 0.961658 37.0226C0.637986 36.7001 0.484542 36.3321 0.669155 35.8873C0.859762 35.4258 1.22899 35.2819 1.7121 35.2831C5.37559 35.2915 9.03908 35.2879 12.7014 35.2879H13.3104C13.1054 35.1093 12.9807 34.999 12.8536 34.8911C9.30761 31.863 7.1378 28.0544 6.53481 23.4199C6.33342 21.8699 6.3538 20.2839 6.35859 18.7147C6.36219 17.4584 7.51662 16.2896 8.76575 16.1397C8.98753 16.1133 9.2129 16.1001 9.43708 16.0989C18.2134 16.0966 26.9909 16.0954 35.7672 16.0989C37.4779 16.0989 38.6287 17.0472 38.8673 18.656C38.9188 19.0084 38.8924 19.3728 38.8984 19.7325C38.902 19.9554 38.8984 20.1784 38.8984 20.3906C39.6992 20.2479 40.4677 20.0346 41.2445 19.9926C42.0237 19.9507 42.8413 19.9674 43.5905 20.158C45.258 20.5824 46.1271 21.792 46.4424 23.4427C46.464 23.5566 46.5059 23.6657 46.5395 23.7772V25.4854V25.4842ZM22.6285 18.0206C18.2326 18.0206 13.8366 18.0206 9.44067 18.0206C8.66266 18.0206 8.25268 18.3431 8.27066 19.0564C8.30782 20.5357 8.26586 22.0353 8.49843 23.4871C9.32679 28.6371 12.0876 32.4911 16.577 35.1093C16.7593 35.216 16.9954 35.2771 17.2064 35.2783C20.81 35.2879 24.4135 35.2879 28.0171 35.2783C28.2149 35.2783 28.4342 35.2232 28.6057 35.1261C32.3567 32.9922 34.8945 29.867 36.2252 25.7528C36.9085 23.6405 36.9984 21.4659 36.9528 19.2733C36.9336 18.3251 36.6399 18.0182 35.6809 18.0182C31.3293 18.0182 26.9789 18.0182 22.6273 18.0182L22.6285 18.0206ZM3.95023 37.2347C5.0675 38.5666 6.43651 39.1216 8.09204 39.1192C17.7662 39.1061 27.4416 39.1132 37.1158 39.1108C37.4443 39.1108 37.7752 39.1037 38.1001 39.0605C39.3792 38.8915 40.4029 38.2717 41.2756 37.2335H3.95023V37.2347ZM35.8511 31.037C36.8725 30.6858 37.78 30.4089 38.6611 30.0648C40.3214 29.4175 41.9242 28.6598 43.2524 27.4275C44.2426 26.5092 44.7509 25.4183 44.5819 24.0277C44.438 22.8409 43.8878 22.1252 42.7334 21.937C41.4303 21.7237 40.1859 22.0569 38.974 22.5065C38.8829 22.54 38.8157 22.733 38.8001 22.8589C38.4849 25.5058 37.6793 27.9849 36.3103 30.2758C36.1832 30.4892 36.0549 30.7014 35.8511 31.0394V31.037Z" fill="#D3AD7F"/>
<path d="M21.6431 10.5239C21.6623 9.04341 22.0315 7.91775 22.776 6.90957C23.7949 5.52857 23.8165 3.81191 22.8575 2.39135C22.4739 1.82312 22.5338 1.27168 23.0157 0.932423C23.4929 0.596763 24.0395 0.732226 24.4423 1.28367C25.8149 3.16576 25.8868 5.97931 24.4639 7.83503C23.3946 9.22922 23.2939 11.3355 24.3368 12.6685C24.6868 13.1169 24.5526 13.6971 24.1126 14.0124C23.7062 14.3037 23.1344 14.2258 22.7952 13.7966C21.9836 12.7728 21.6491 11.5836 21.6431 10.5239Z" fill="#D3AD7F"/>
<path d="M31.2334 4.56616C31.219 5.86445 30.8666 6.9973 30.1209 8.01027C29.0804 9.42364 29.0552 11.1247 30.0298 12.574C30.4002 13.1255 30.3451 13.653 29.8812 14.0006C29.4244 14.3423 28.849 14.2116 28.4462 13.6745C27.0292 11.7864 27.0448 8.94892 28.5014 6.95894C29.3465 5.80451 29.5167 4.55777 29.0468 3.22232C28.9389 2.91663 28.7579 2.63372 28.5841 2.358C28.2412 1.81375 28.3048 1.25511 28.7699 0.933838C29.2422 0.60657 29.7805 0.72525 30.1701 1.25511C30.9061 2.2537 31.2286 3.38655 31.2346 4.56736L31.2334 4.56616Z" fill="#D3AD7F"/>
<path d="M19.7466 4.54535C19.7334 5.86761 19.3786 6.99926 18.6341 8.01223C17.5936 9.428 17.5684 11.1255 18.5442 12.5748C18.9147 13.1239 18.8583 13.6573 18.3944 14.0014C17.9484 14.3322 17.3778 14.2136 16.987 13.7089C15.5641 11.8711 15.5365 8.98205 16.9654 7.03283C17.8322 5.85082 18.0431 4.5933 17.56 3.22189C17.4521 2.91619 17.2711 2.63328 17.0973 2.35756C16.7556 1.81571 16.8216 1.25228 17.2843 0.933402C17.759 0.606134 18.2937 0.726013 18.6833 1.25707C19.4182 2.25686 19.7418 3.38852 19.7466 4.54535Z" fill="#D3AD7F"/>
</g>
<defs>
<clipPath id="clip0_63_144">
<rect width="45.9495" height="40.29" fill="white" transform="translate(0.590027 0.75)"/>
</clipPath>
</defs>
</svg>
