<svg width="42" height="42" viewBox="0 0 42 42" fill="none" xmlns="http://www.w3.org/2000/svg">
<g clip-path="url(#clip0_63_149)">
<path d="M17.4098 12.1174C18.0932 10.944 18.6993 9.75573 19.4395 8.65731C21.5568 5.51785 24.2869 3.07996 27.8437 1.66771C30.194 0.735306 32.6171 0.415787 35.0777 1.17194C38.4025 2.19304 40.3822 4.54223 41.2987 7.81133C42.2265 11.1259 41.8274 14.3927 40.6301 17.5652C38.9222 22.0896 36.0806 25.7089 31.8541 28.1479C29.6789 29.4033 27.3388 30.1094 24.7963 29.965C24.4631 29.9456 24.4097 30.0844 24.3642 30.3686C23.9344 33.1204 22.9986 35.6629 21.1281 37.779C18.0614 41.2482 13.5927 42.01 9.52764 39.7734C6.51667 38.1167 4.47107 35.5753 3.00879 32.5279C1.47715 29.3362 0.798314 25.9556 0.991617 22.425C1.16332 19.2958 2.0002 16.3655 3.93096 13.8321C5.46032 11.8252 7.43542 10.5062 9.962 10.1128C12.2748 9.75345 14.4023 10.3152 16.3967 11.4761C16.7515 11.6819 17.0903 11.915 17.4087 12.1163L17.4098 12.1174ZM8.11312 12.2209L7.95393 12.1811C7.79474 12.2687 7.63214 12.3494 7.4775 12.4438C5.72981 13.5035 4.53702 15.0454 3.7115 16.8784C2.43343 19.7165 2.11277 22.6968 2.48232 25.768C2.88485 29.1088 4.00259 32.1754 6.03227 34.876C7.50706 36.8397 9.31501 38.393 11.6767 39.2094C12.7308 39.5733 13.8121 39.7256 14.9492 39.5983C14.9879 39.3015 15.0197 39.0354 15.0584 38.7705C15.3654 36.6191 15.3097 34.4758 14.8924 32.3426C14.3363 29.5033 13.1049 26.9733 11.4686 24.5991C9.51172 21.7587 8.39511 18.5885 8.12449 15.1443C8.04831 14.1755 8.11312 13.1954 8.11312 12.2209V12.2209ZM38.3593 4.96295C38.29 5.01412 38.2422 5.04255 38.2024 5.07893C34.9731 8.05921 32.915 11.691 32.1259 16.0256C31.2276 20.9571 28.8693 25.0392 25.0305 28.2639C24.9373 28.3424 24.8304 28.4049 24.7292 28.4754L24.7917 28.5868C24.9691 28.5959 25.1476 28.6153 25.325 28.6141C27.3684 28.5925 29.2684 28.0308 31.0354 27.0325C34.9345 24.8277 37.5782 21.5336 39.2133 17.4105C40.3606 14.5178 40.7779 11.5341 40.0422 8.45946C39.7363 7.18252 39.2053 6.00679 38.3593 4.96523V4.96295ZM19.269 37.7869C19.7545 37.2241 20.2423 36.7294 20.6494 36.1734C22.3118 33.9049 23.0259 31.301 23.1669 28.5402C23.3681 24.6059 22.4721 20.9184 20.4379 17.5345C19.0984 15.3081 17.3598 13.4717 15.0015 12.296C14.0885 11.8411 13.1276 11.5284 12.0713 11.4409C11.9928 13.3944 12.1384 15.291 12.5852 17.1638C13.197 19.7211 14.3864 21.9941 15.8555 24.1591C18.0398 27.377 19.1632 30.9588 19.2656 34.851C19.2906 35.7948 19.269 36.7397 19.269 37.7858V37.7869ZM24.2448 23.3483C24.3085 23.2801 24.4154 23.1914 24.4904 23.0811C25.1408 22.1203 25.8401 21.1867 26.42 20.1838C27.573 18.1894 28.1563 15.996 28.6009 13.7435C29.4231 9.57834 31.4243 6.03408 34.4739 3.08337C34.632 2.92986 34.8105 2.7991 34.9799 2.65696L34.9163 2.52051C34.4057 2.41931 33.8997 2.28855 33.3846 2.2226C31.3834 1.96448 29.4879 2.39089 27.6913 3.23801C23.4227 5.2495 20.5721 8.60501 18.6868 12.8588C18.5867 13.0839 18.6845 13.1863 18.8255 13.3205C20.7051 15.1091 22.0878 17.2365 23.0202 19.6471C23.4864 20.8524 23.8377 22.1021 24.2459 23.3483H24.2448ZM10.6784 11.4068C10.4396 11.4409 10.2474 11.4648 10.0552 11.4966C9.90174 11.5216 9.73345 11.525 9.60269 11.5944C9.50831 11.6444 9.40939 11.7877 9.40597 11.8923C9.34571 13.7821 9.44463 15.6583 9.86876 17.5117C10.4646 20.119 11.629 22.45 13.1344 24.648C15.4473 28.024 16.5946 31.7888 16.6162 35.8812C16.6219 37.0228 16.5047 38.1656 16.4433 39.314C16.5934 39.2628 16.7697 39.2105 16.9402 39.1446C17.1119 39.0786 17.2882 39.015 17.4428 38.9183C17.5349 38.8603 17.635 38.7466 17.6509 38.6454C17.9625 36.6578 18.0159 34.6656 17.7112 32.6723C17.2552 29.683 16.1568 26.9494 14.4216 24.4695C11.837 20.7751 10.601 16.6669 10.6784 12.1606C10.6829 11.923 10.6784 11.6853 10.6784 11.4068V11.4068ZM37.3394 3.89865C37.0756 3.70876 36.7879 3.48475 36.4786 3.296C36.4104 3.25393 36.233 3.30169 36.1614 3.36764C34.1681 5.19605 32.5068 7.27349 31.3504 9.73867C30.5078 11.5364 30.0632 13.4421 29.6618 15.3729C28.9011 19.0354 27.2058 22.2283 24.6689 24.9766C24.5711 25.0824 24.4688 25.2393 24.4722 25.3701C24.4836 25.8317 24.5405 26.2911 24.5848 26.8107C24.7258 26.6947 24.835 26.6151 24.9339 26.523C28.0654 23.6042 30.003 20.0315 30.7659 15.8243C31.3765 12.4586 32.6899 9.40551 34.823 6.72883C35.5985 5.75549 36.4763 4.86516 37.3405 3.89865H37.3394Z" fill="#D3AD7F"/>
<path d="M9.7132 34.9966C9.977 35.1399 10.168 35.2229 10.3375 35.3377C11.0618 35.8312 11.7736 36.3429 12.5013 36.8307C12.9516 37.1331 13.096 37.4845 12.8731 37.8541C12.6537 38.2179 12.2409 38.3066 11.8031 38.0155C10.9799 37.4674 10.1726 36.8932 9.37094 36.3133C9.106 36.1223 8.98547 35.8198 9.15604 35.5265C9.27657 35.3195 9.51194 35.1808 9.7132 34.9966Z" fill="#D3AD7F"/>
<path d="M8.89337 34.2369C8.77966 34.3802 8.66482 34.6588 8.47152 34.7338C8.26229 34.8145 7.89388 34.7952 7.74493 34.6576C7.38561 34.3267 7.0877 33.9185 6.8148 33.508C6.63628 33.2385 6.69199 32.927 6.93874 32.695C7.18321 32.4653 7.53002 32.3948 7.74947 32.6188C8.14859 33.0282 8.46924 33.5149 8.81832 33.9731C8.85016 34.0152 8.85016 34.08 8.89337 34.2369Z" fill="#D3AD7F"/>
<path d="M23.4423 10.3797C23.4047 10.4524 23.3331 10.6173 23.2387 10.7685C22.76 11.5338 22.2688 12.2922 21.7946 13.0609C21.5286 13.493 21.184 13.6408 20.8122 13.4452C20.4461 13.253 20.3233 12.8414 20.5757 12.4218C21.0931 11.5645 21.6377 10.7219 22.1903 9.88617C22.3757 9.60645 22.6565 9.47568 23.0033 9.61441C23.299 9.73153 23.4468 9.94985 23.4423 10.3797Z" fill="#D3AD7F"/>
<path d="M25.9165 7.65426C25.9029 8.25122 24.6453 9.37351 24.2268 9.2564C24.0131 9.19727 23.7652 9.00055 23.6833 8.80384C23.6094 8.62873 23.6697 8.30011 23.8004 8.15684C24.12 7.80435 24.4884 7.48256 24.8886 7.22672C25.0592 7.11756 25.3901 7.13234 25.5857 7.2233C25.763 7.30631 25.8574 7.56898 25.9177 7.65426H25.9165Z" fill="#D3AD7F"/>
</g>
<defs>
<clipPath id="clip0_63_149">
<rect width="40.8494" height="40.29" fill="white" transform="translate(0.959991 0.75)"/>
</clipPath>
</defs>
</svg>
