<svg width="28" height="22" viewBox="0 0 28 22" fill="none" xmlns="http://www.w3.org/2000/svg">
<g clip-path="url(#clip0_77_11)">
<path d="M27.183 13.697C27.1468 14.2192 27.1014 14.7407 27.0764 15.2635C27.0232 16.3605 26.8916 17.441 26.4477 18.4591C25.84 19.8534 24.7608 20.6662 23.2679 20.826C21.8434 20.9786 20.4071 21.0299 18.9747 21.0911C17.6462 21.1476 16.3151 21.1891 14.986 21.1812C12.7815 21.168 10.5763 21.1233 8.37249 21.0661C7.2104 21.0358 6.04765 20.9688 4.88753 20.8852C4.01087 20.8228 3.15919 20.6406 2.4042 20.144C1.40323 19.4864 0.875129 18.5144 0.67783 17.3773C0.511441 16.4157 0.39898 15.4371 0.365439 14.4625C0.303619 12.6796 0.288493 10.8927 0.310196 9.10845C0.324664 7.9115 0.389115 6.71061 0.518675 5.5209C0.631793 4.48376 0.9113 3.47227 1.59659 2.63901C2.25622 1.83666 3.1079 1.31514 4.13911 1.20991C5.4597 1.07443 6.78884 0.975125 8.11601 0.951449C11.134 0.898836 14.1534 0.871871 17.1714 0.892917C18.9813 0.905412 20.7912 1.01393 22.5997 1.10863C23.7651 1.16979 24.8259 1.52164 25.6763 2.37726C26.3129 3.01717 26.6062 3.81755 26.8127 4.66791C27.0666 5.71359 27.062 6.78361 27.1297 7.84705C27.1402 8.01147 27.1652 8.17457 27.183 8.33833V13.6963V13.697ZM13.2247 19.6126V19.6067C13.5746 19.6067 13.9251 19.6159 14.2744 19.6054C16.8189 19.5298 19.364 19.4601 21.9079 19.3634C22.48 19.3417 23.0673 19.2878 23.6138 19.1293C24.5122 18.8688 24.9436 18.148 25.1916 17.2858C25.5053 16.1954 25.5013 15.0721 25.5507 13.9567C25.6533 11.6562 25.6467 9.35376 25.4954 7.05522C25.4441 6.27392 25.3422 5.48998 25.1811 4.72446C24.9377 3.56895 24.1748 2.90076 23.0088 2.76792C22.0368 2.65677 21.0569 2.60153 20.0789 2.5647C18.4525 2.50353 16.8254 2.46868 15.1984 2.43843C11.7233 2.37398 8.25214 2.48907 4.78494 2.71333C3.44067 2.80014 2.64424 3.49529 2.28056 4.78365C1.97737 5.85893 1.97343 6.96315 1.92608 8.06079C1.81427 10.6415 1.84255 13.2228 2.02472 15.8008C2.07668 16.5381 2.20558 17.2589 2.51074 17.9349C2.86982 18.7288 3.54787 19.1187 4.36864 19.2082C5.54059 19.3358 6.71979 19.4213 7.89766 19.4693C9.67204 19.5423 11.4484 19.5673 13.2241 19.6126H13.2247Z" fill="#D3AD7F"/>
<path d="M10.3226 10.7402C10.3226 9.70768 10.3562 8.67384 10.3128 7.64328C10.2759 6.76464 11.1421 6.10303 12.0536 6.61074C13.9536 7.66892 15.8648 8.70606 17.7746 9.74648C18.1843 9.97009 18.4435 10.2963 18.4448 10.7632C18.4461 11.2427 18.1771 11.5728 17.7575 11.7971C15.8477 12.8191 13.9332 13.8319 12.0365 14.8769C11.1618 15.359 10.2746 14.7178 10.3128 13.8365C10.3568 12.8059 10.3233 11.7721 10.3233 10.7396L10.3226 10.7402ZM16.3278 10.7632C14.8388 9.94773 13.3887 9.15393 11.9208 8.35026V13.1335C13.3933 12.3416 14.8375 11.5649 16.3278 10.7632Z" fill="#D3AD7F"/>
</g>
<defs>
<clipPath id="clip0_77_11">
<rect width="26.882" height="20.2955" fill="white" transform="translate(0.301147 0.885742)"/>
</clipPath>
</defs>
</svg>
